  0
SECTION
  2
HEADER
  9
$ACADVER
  1
AC1009
  9
$INSBASE
 10
0.0
 20
0.0
 30
0.0
  9
$EXTMIN
 10
-292.2989999999999782
 20
1134.7580793911511137
 30
0.0
  9
$EXTMAX
 10
3398.8910534863098292
 20
3170.3099999999999454
 30
0.0
  9
$LIMMIN
 10
0.0
 20
0.0
  9
$LIMMAX
 10
420.0
 20
297.0
  9
$ORTHOMODE
 70
     0
  9
$REGENMODE
 70
     1
  9
$FILLMODE
 70
     1
  9
$QTEXTMODE
 70
     0
  9
$MIRRTEXT
 70
     0
  9
$DRAGMODE
 70
     2
  9
$LTSCALE
 40
1.0
  9
$OSMODE
 70
    37
  9
$ATTMODE
 70
     1
  9
$TEXTSIZE
 40
2.5
  9
$TRACEWID
 40
1.0
  9
$TEXTSTYLE
  7
STANDARD
  9
$CLAYER
  8
0
  9
$CELTYPE
  6
BYLAYER
  9
$CECOLOR
 62
   256
  9
$DIMSCALE
 40
1.0
  9
$DIMASZ
 40
2.5
  9
$DIMEXO
 40
0.625
  9
$DIMDLI
 40
3.75
  9
$DIMRND
 40
0.0
  9
$DIMDLE
 40
0.0
  9
$DIMEXE
 40
1.25
  9
$DIMTP
 40
0.0
  9
$DIMTM
 40
0.0
  9
$DIMTXT
 40
2.5
  9
$DIMCEN
 40
2.5
  9
$DIMTSZ
 40
0.0
  9
$DIMTOL
 70
     0
  9
$DIMLIM
 70
     0
  9
$DIMTIH
 70
     0
  9
$DIMTOH
 70
     0
  9
$DIMSE1
 70
     0
  9
$DIMSE2
 70
     0
  9
$DIMTAD
 70
     1
  9
$DIMZIN
 70
     8
  9
$DIMBLK
  1

  9
$DIMASO
 70
     1
  9
$DIMSHO
 70
     1
  9
$DIMPOST
  1

  9
$DIMAPOST
  1

  9
$DIMALT
 70
     0
  9
$DIMALTD
 70
     3
  9
$DIMALTF
 40
0.03937007874016
  9
$DIMLFAC
 40
1.0
  9
$DIMTOFL
 70
     1
  9
$DIMTVP
 40
0.0
  9
$DIMTIX
 70
     0
  9
$DIMSOXD
 70
     0
  9
$DIMSAH
 70
     0
  9
$DIMBLK1
  1

  9
$DIMBLK2
  1

  9
$DIMSTYLE
  2
ISO-25
  9
$DIMCLRD
 70
     0
  9
$DIMCLRE
 70
     0
  9
$DIMCLRT
 70
     0
  9
$DIMTFAC
 40
1.0
  9
$DIMGAP
 40
0.625
  9
$LUNITS
 70
     2
  9
$LUPREC
 70
     4
  9
$SKETCHINC
 40
1.0
  9
$FILLETRAD
 40
0.0
  9
$AUNITS
 70
     0
  9
$AUPREC
 70
     0
  9
$MENU
  1
.
  9
$ELEVATION
 40
0.0
  9
$PELEVATION
 40
0.0
  9
$THICKNESS
 40
0.0
  9
$LIMCHECK
 70
     0
  9
$BLIPMODE
 70
     0
  9
$CHAMFERA
 40
0.0
  9
$CHAMFERB
 40
0.0
  9
$SKPOLY
 70
     0
  9
$TDCREATE
 40
2458042.6542245368473232
  9
$TDUPDATE
 40
2458122.0906018521636724
  9
$TDINDWG
 40
0.2177326736
  9
$TDUSRTIMER
 40
0.2177326273
  9
$USRTIMER
 70
     1
  9
$ANGBASE
 50
0.0
  9
$ANGDIR
 70
     0
  9
$PDMODE
 70
     0
  9
$PDSIZE
 40
0.0
  9
$PLINEWID
 40
0.0
  9
$COORDS
 70
     1
  9
$SPLFRAME
 70
     0
  9
$SPLINETYPE
 70
     6
  9
$SPLINESEGS
 70
     8
  9
$ATTDIA
 70
     1
  9
$ATTREQ
 70
     1
  9
$HANDLING
 70
     1
  9
$HANDSEED
  5
1028
  9
$SURFTAB1
 70
     6
  9
$SURFTAB2
 70
     6
  9
$SURFTYPE
 70
     6
  9
$SURFU
 70
     6
  9
$SURFV
 70
     6
  9
$UCSNAME
  2

  9
$UCSORG
 10
0.0
 20
0.0
 30
0.0
  9
$UCSXDIR
 10
1.0
 20
0.0
 30
0.0
  9
$UCSYDIR
 10
0.0
 20
1.0
 30
0.0
  9
$PUCSNAME
  2

  9
$PUCSORG
 10
0.0
 20
0.0
 30
0.0
  9
$PUCSXDIR
 10
1.0
 20
0.0
 30
0.0
  9
$PUCSYDIR
 10
0.0
 20
1.0
 30
0.0
  9
$USERI1
 70
     0
  9
$USERI2
 70
     0
  9
$USERI3
 70
     0
  9
$USERI4
 70
     0
  9
$USERI5
 70
     0
  9
$USERR1
 40
0.0
  9
$USERR2
 40
0.0
  9
$USERR3
 40
0.0
  9
$USERR4
 40
0.0
  9
$USERR5
 40
0.0
  9
$WORLDVIEW
 70
     1
  9
$SHADEDGE
 70
     3
  9
$SHADEDIF
 70
    70
  9
$TILEMODE
 70
     1
  9
$MAXACTVP
 70
    64
  9
$PLIMCHECK
 70
     0
  9
$PEXTMIN
 10
0.0
 20
0.0
 30
0.0
  9
$PEXTMAX
 10
0.0
 20
0.0
 30
0.0
  9
$PLIMMIN
 10
0.0
 20
0.0
  9
$PLIMMAX
 10
12.0
 20
9.0
  9
$UNITMODE
 70
     0
  9
$VISRETAIN
 70
     1
  9
$PLINEGEN
 70
     0
  9
$PSLTSCALE
 70
     1
  0
ENDSEC
  0
SECTION
  2
TABLES
  0
TABLE
  2
VPORT
 70
     1
  0
VPORT
  2
*ACTIVE
 70
     0
 10
0.0
 20
0.0
 11
1.0
 21
1.0
 12
3752.1453084659337947
 22
3020.7142343283890114
 13
0.0
 23
0.0
 14
10.0
 24
10.0
 15
10.0
 25
10.0
 16
0.0
 26
0.0
 36
1.0
 17
0.0
 27
0.0
 37
0.0
 40
6405.8470403224719121
 41
1.5198555956678701
 42
50.0
 43
0.0
 44
0.0
 50
0.0
 51
0.0
 71
     0
 72
  1000
 73
     1
 74
     3
 75
     0
 76
     1
 77
     0
 78
     0
  0
ENDTAB
  0
TABLE
  2
LTYPE
 70
     1
  0
LTYPE
  2
CONTINUOUS
 70
     0
  3
Solid line
 72
    65
 73
     0
 40
0.0
  0
ENDTAB
  0
TABLE
  2
LAYER
 70
     1
  0
LAYER
  2
0
 70
     0
 62
     7
  6
CONTINUOUS
  0
ENDTAB
  0
TABLE
  2
STYLE
 70
     3
  0
STYLE
  2
STANDARD
 70
     0
 40
0.0
 41
1.0
 50
0.0
 71
     0
 42
2.5
  3
txt
  4

  0
STYLE
  2
ANNOTATIVE
 70
     0
 40
0.0
 41
1.0
 50
0.0
 71
     0
 42
0.2
  3
txt
  4

  0
STYLE
  2
¿ÕÕŒ“¿“»¬Õ€…
 70
     0
 40
0.0
 41
1.0
 50
0.0
 71
     0
 42
2.5
  3
txt
  4

  0
ENDTAB
  0
TABLE
  2
VIEW
 70
     0
  0
ENDTAB
  0
TABLE
  2
UCS
 70
     0
  0
ENDTAB
  0
TABLE
  2
APPID
 70
     9
  0
APPID
  2
ACAD
 70
     0
  0
APPID
  2
ACADANNOTATIVE
 70
     0
  0
APPID
  2
ACAD_PSEXT
 70
     0
  0
APPID
  2
ACADANNOPO
 70
     0
  0
APPID
  2
ACAD_DSTYLE_DIMJAG
 70
     0
  0
APPID
  2
ACAD_DSTYLE_DIMTALN
 70
     0
  0
APPID
  2
ACAD_MLEADERVER
 70
     0
  0
APPID
  2
ACAD_NAV_VCDISPLAY
 70
     0
  0
APPID
  2
ACAD_EXEMPT_FROM_CAD_STANDARDS
 70
     0
  0
ENDTAB
  0
TABLE
  2
DIMSTYLE
 70
     4
  0
DIMSTYLE
  2
STANDARD
 70
     0
  3

  4

  5

  6

  7

 40
1.0
 41
0.18
 42
0.0625
 43
0.38
 44
0.18
 45
0.0
 46
0.0
 47
0.0
 48
0.0
140
0.18
141
0.09
142
0.0
143
25.3999999999999986
144
1.0
145
0.0
146
1.0
147
0.09
 71
     0
 72
     0
 73
     1
 74
     1
 75
     0
 76
     0
 77
     0
 78
     0
170
     0
171
     2
172
     0
173
     0
174
     0
175
     0
176
     0
177
     0
178
     0
  0
DIMSTYLE
  2
ANNOTATIVE
 70
     0
  3

  4

  5

  6

  7

 40
1.0
 41
0.18
 42
0.0625
 43
0.38
 44
0.18
 45
0.0
 46
0.0
 47
0.0
 48
0.0
140
0.18
141
0.09
142
0.0
143
25.3999999999999986
144
1.0
145
0.0
146
1.0
147
0.09
 71
     0
 72
     0
 73
     1
 74
     1
 75
     0
 76
     0
 77
     0
 78
     0
170
     0
171
     2
172
     0
173
     0
174
     0
175
     0
176
     0
177
     0
178
     0
  0
DIMSTYLE
  2
¿ÕÕŒ“¿“»¬Õ€…
 70
     0
  3

  4

  5

  6

  7

 40
0.0
 41
2.5
 42
0.625
 43
3.75
 44
1.25
 45
0.0
 46
0.0
 47
0.0
 48
0.0
140
2.5
141
2.5
142
0.0
143
0.03937007874016
144
1.0
145
0.0
146
1.0
147
0.625
 71
     0
 72
     0
 73
     0
 74
     0
 75
     0
 76
     0
 77
     1
 78
     8
170
     0
171
     3
172
     1
173
     0
174
     0
175
     0
176
     0
177
     0
178
     0
  0
DIMSTYLE
  2
ISO-25
 70
     0
  3

  4

  5

  6

  7

 40
1.0
 41
2.5
 42
0.625
 43
3.75
 44
1.25
 45
0.0
 46
0.0
 47
0.0
 48
0.0
140
2.5
141
2.5
142
0.0
143
0.03937007874016
144
1.0
145
0.0
146
1.0
147
0.625
 71
     0
 72
     0
 73
     0
 74
     0
 75
     0
 76
     0
 77
     1
 78
     8
170
     0
171
     3
172
     1
173
     0
174
     0
175
     0
176
     0
177
     0
178
     0
  0
ENDTAB
  0
ENDSEC
  0
SECTION
  2
BLOCKS
  0
BLOCK
  8
0
  2
$MODEL_SPACE
 70
     0
 10
0.0
 20
0.0
 30
0.0
  3
$MODEL_SPACE
  1

  0
ENDBLK
  5
8A2
  8
0
  0
BLOCK
 67
     1
  8
0
  2
$PAPER_SPACE
 70
     0
 10
0.0
 20
0.0
 30
0.0
  3
$PAPER_SPACE
  1

  0
ENDBLK
  5
89E
 67
     1
  8
0
  0
ENDSEC
  0
SECTION
  2
ENTITIES
  0
CIRCLE
  5
257
  8
0
 10
865.4632243162686791
 20
2372.6911463054539126
 30
0.0
 40
295.47684586689752
  0
ARC
  5
25B
  8
0
 10
1164.0412140510779864
 20
1750.6789195676039981
 30
0.0
 40
449.7479432925459264
 50
286.6273016039602908
 51
188.7091039424900032
  0
POLYLINE
  5
25C
  8
0
 66
     1
 10
0.0
 20
0.0
 30
0.0
  0
VERTEX
  5
FD7
  8
0
 10
1702.2024635461930302
 20
1632.7771312403961019
 30
0.0
  0
VERTEX
  5
FD8
  8
0
 10
1520.6122468971109356
 20
1181.0027045207759784
 30
0.0
  0
VERTEX
  5
FD9
  8
0
 10
2346.6697006044810223
 20
1522.5014807046491114
 30
0.0
  0
VERTEX
  5
FDA
  8
0
 10
2432.1239161677440279
 20
1134.7580793911511137
 30
0.0
  0
VERTEX
  5
FDB
  8
0
 10
1716.4448350939740067
 20
1134.7580793911511137
 30
0.0
  0
VERTEX
  5
FDC
  8
0
 10
1702.2024635461930302
 20
1632.7771312403961019
 30
0.0
  0
SEQEND
  5
FDD
  8
0
  0
POLYLINE
  5
36E
  8
0
 66
     1
 10
0.0
 20
0.0
 30
0.0
 70
     1
  0
VERTEX
  5
FDE
  8
0
 10
1212.1958057868719152
 20
3122.3755680394488081
 30
0.0
  0
VERTEX
  5
FDF
  8
0
 10
2171.2728801704411126
 20
3122.3755680394488081
 30
0.0
  0
VERTEX
  5
FE0
  8
0
 10
2171.2728801704411126
 20
2733.4631179353541484
 30
0.0
  0
VERTEX
  5
FE1
  8
0
 10
1212.1958057868719152
 20
2733.4631179353541484
 30
0.0
  0
SEQEND
  5
FE2
  8
0
  0
POLYLINE
  5
4D3
  8
0
 66
     1
 10
0.0
 20
0.0
 30
0.0
 70
     8
  0
VERTEX
  5
57A
  8
0
 10
614.6879999999999882
 20
2947.8200000000001637
 30
0.0
 70
    32
  0
VERTEX
  5
57B
  8
0
 10
614.140999999999849
 20
2958.7399999999997817
 30
0.0
 70
    32
  0
VERTEX
  5
57C
  8
0
 10
612.5040000000000191
 20
2969.6300000000001091
 30
0.0
 70
    32
  0
VERTEX
  5
57D
  8
0
 10
609.778999999999769
 20
2980.4699999999997999
 30
0.0
 70
    32
  0
VERTEX
  5
57E
  8
0
 10
605.9740000000000464
 20
2991.2300000000000182
 30
0.0
 70
    32
  0
VERTEX
  5
57F
  8
0
 10
601.09699999999998
 20
3001.8800000000001091
 30
0.0
 70
    32
  0
VERTEX
  5
580
  8
0
 10
595.1599999999999682
 20
3012.4099999999998545
 30
0.0
 70
    32
  0
VERTEX
  5
581
  8
0
 10
588.1779999999999973
 20
3022.7800000000002001
 30
0.0
 70
    32
  0
VERTEX
  5
582
  8
0
 10
580.1680000000000064
 20
3032.9699999999997999
 30
0.0
 70
    32
  0
VERTEX
  5
583
  8
0
 10
571.1480000000000246
 20
3042.9499999999998181
 30
0.0
 70
    32
  0
VERTEX
  5
584
  8
0
 10
561.1399999999996453
 20
3052.6999999999998181
 30
0.0
 70
    32
  0
VERTEX
  5
585
  8
0
 10
550.168999999999869
 20
3062.1999999999998181
 30
0.0
 70
    32
  0
VERTEX
  5
586
  8
0
 10
538.2599999999999909
 20
3071.4299999999998363
 30
0.0
 70
    32
  0
VERTEX
  5
587
  8
0
 10
525.4439999999998463
 20
3080.3600000000010368
 30
0.0
 70
    32
  0
VERTEX
  5
588
  8
0
 10
511.7490000000000236
 20
3088.9699999999997999
 30
0.0
 70
    32
  0
VERTEX
  5
589
  8
0
 10
497.2109999999997854
 20
3097.2399999999997817
 30
0.0
 70
    32
  0
VERTEX
  5
58A
  8
0
 10
481.8629999999997722
 20
3105.1399999999998727
 30
0.0
 70
    32
  0
VERTEX
  5
58B
  8
0
 10
465.7420000000000186
 20
3112.6700000000000728
 30
0.0
 70
    32
  0
VERTEX
  5
58C
  8
0
 10
448.88799999999992
 20
3119.8099999999999454
 30
0.0
 70
    32
  0
VERTEX
  5
58D
  8
0
 10
431.3399999999999181
 20
3126.5300000000011096
 30
0.0
 70
    32
  0
VERTEX
  5
58E
  8
0
 10
413.1419999999999959
 20
3132.8099999999999454
 30
0.0
 70
    32
  0
VERTEX
  5
58F
  8
0
 10
394.3369999999999891
 20
3138.6599999999998545
 30
0.0
 70
    32
  0
VERTEX
  5
590
  8
0
 10
374.9700000000000273
 20
3144.0399999999999636
 30
0.0
 70
    32
  0
VERTEX
  5
591
  8
0
 10
355.0880000000000223
 20
3148.9499999999998181
 30
0.0
 70
    32
  0
VERTEX
  5
592
  8
0
 10
334.7389999999999759
 20
3153.3699999999998909
 30
0.0
 70
    32
  0
VERTEX
  5
593
  8
0
 10
313.97199999999998
 20
3157.3000000000010914
 30
0.0
 70
    32
  0
VERTEX
  5
594
  8
0
 10
292.8369999999999891
 20
3160.7300000000000182
 30
0.0
 70
    32
  0
VERTEX
  5
595
  8
0
 10
271.3840000000000146
 20
3163.6399999999998727
 30
0.0
 70
    32
  0
VERTEX
  5
596
  8
0
 10
249.6670000000000016
 20
3166.0300000000011096
 30
0.0
 70
    32
  0
VERTEX
  5
597
  8
0
 10
227.73599999999999
 20
3167.9000000000000909
 30
0.0
 70
    32
  0
VERTEX
  5
598
  8
0
 10
205.6450000000000102
 20
3169.2399999999997817
 30
0.0
 70
    32
  0
VERTEX
  5
599
  8
0
 10
183.445999999999998
 20
3170.0399999999999636
 30
0.0
 70
    32
  0
VERTEX
  5
59A
  8
0
 10
161.1939999999999884
 20
3170.3099999999999454
 30
0.0
 70
    32
  0
VERTEX
  5
59B
  8
0
 10
138.9430000000000121
 20
3170.0399999999999636
 30
0.0
 70
    32
  0
VERTEX
  5
59C
  8
0
 10
116.7439999999999998
 20
3169.2399999999997817
 30
0.0
 70
    32
  0
VERTEX
  5
59D
  8
0
 10
94.6530999999999949
 20
3167.9000000000000909
 30
0.0
 70
    32
  0
VERTEX
  5
59E
  8
0
 10
72.7222000000000008
 20
3166.0300000000011096
 30
0.0
 70
    32
  0
VERTEX
  5
59F
  8
0
 10
51.0045000000000002
 20
3163.6399999999998727
 30
0.0
 70
    32
  0
VERTEX
  5
5A0
  8
0
 10
29.5521999999999991
 20
3160.7300000000000182
 30
0.0
 70
    32
  0
VERTEX
  5
5A1
  8
0
 10
8.4171099999999992
 20
3157.3000000000010914
 30
0.0
 70
    32
  0
VERTEX
  5
5A2
  8
0
 10
-12.3499999999999996
 20
3153.3699999999998909
 30
0.0
 70
    32
  0
VERTEX
  5
5A3
  8
0
 10
-32.6989999999999981
 20
3148.9499999999998181
 30
0.0
 70
    32
  0
VERTEX
  5
5A4
  8
0
 10
-52.5808999999999997
 20
3144.0399999999999636
 30
0.0
 70
    32
  0
VERTEX
  5
5A5
  8
0
 10
-71.9478000000000009
 20
3138.6599999999998545
 30
0.0
 70
    32
  0
VERTEX
  5
5A6
  8
0
 10
-90.7530000000000001
 20
3132.8099999999999454
 30
0.0
 70
    32
  0
VERTEX
  5
5A7
  8
0
 10
-108.9509999999999934
 20
3126.5300000000011096
 30
0.0
 70
    32
  0
VERTEX
  5
5A8
  8
0
 10
-126.4989999999999952
 20
3119.8099999999999454
 30
0.0
 70
    32
  0
VERTEX
  5
5A9
  8
0
 10
-143.3530000000000086
 20
3112.6700000000000728
 30
0.0
 70
    32
  0
VERTEX
  5
5AA
  8
0
 10
-159.4739999999999043
 20
3105.1399999999998727
 30
0.0
 70
    32
  0
VERTEX
  5
5AB
  8
0
 10
-174.8220000000000027
 20
3097.2399999999997817
 30
0.0
 70
    32
  0
VERTEX
  5
5AC
  8
0
 10
-189.36099999999999
 20
3088.9699999999997999
 30
0.0
 70
    32
  0
VERTEX
  5
5AD
  8
0
 10
-203.0550000000000068
 20
3080.3600000000010368
 30
0.0
 70
    32
  0
VERTEX
  5
5AE
  8
0
 10
-215.8720000000000141
 20
3071.4299999999998363
 30
0.0
 70
    32
  0
VERTEX
  5
5AF
  8
0
 10
-227.7800000000000011
 20
3062.1999999999998181
 30
0.0
 70
    32
  0
VERTEX
  5
5B0
  8
0
 10
-238.7510000000000048
 20
3052.6999999999998181
 30
0.0
 70
    32
  0
VERTEX
  5
5B1
  8
0
 10
-248.7589999999999861
 20
3042.9499999999998181
 30
0.0
 70
    32
  0
VERTEX
  5
5B2
  8
0
 10
-257.7789999999999964
 20
3032.9699999999997999
 30
0.0
 70
    32
  0
VERTEX
  5
5B3
  8
0
 10
-265.7900000000000205
 20
3022.7800000000002001
 30
0.0
 70
    32
  0
VERTEX
  5
5B4
  8
0
 10
-272.7719999999999914
 20
3012.4099999999998545
 30
0.0
 70
    32
  0
VERTEX
  5
5B5
  8
0
 10
-278.7080000000000268
 20
3001.8800000000001091
 30
0.0
 70
    32
  0
VERTEX
  5
5B6
  8
0
 10
-283.5849999999999795
 20
2991.2300000000000182
 30
0.0
 70
    32
  0
VERTEX
  5
5B7
  8
0
 10
-287.3910000000000196
 20
2980.4699999999997999
 30
0.0
 70
    32
  0
VERTEX
  5
5B8
  8
0
 10
-290.1150000000000091
 20
2969.6300000000001091
 30
0.0
 70
    32
  0
VERTEX
  5
5B9
  8
0
 10
-291.7529999999999859
 20
2958.7399999999997817
 30
0.0
 70
    32
  0
VERTEX
  5
5BA
  8
0
 10
-292.2989999999999782
 20
2947.8200000000001637
 30
0.0
 70
    32
  0
VERTEX
  5
5BB
  8
0
 10
-291.7529999999999859
 20
2936.9099999999998545
 30
0.0
 70
    32
  0
VERTEX
  5
5BC
  8
0
 10
-290.1150000000000091
 20
2926.0199999999999818
 30
0.0
 70
    32
  0
VERTEX
  5
5BD
  8
0
 10
-287.3910000000000196
 20
2915.1799999999998363
 30
0.0
 70
    32
  0
VERTEX
  5
5BE
  8
0
 10
-283.5849999999999795
 20
2904.4200000000000728
 30
0.0
 70
    32
  0
VERTEX
  5
5BF
  8
0
 10
-278.7080000000000268
 20
2893.7699999999999818
 30
0.0
 70
    32
  0
VERTEX
  5
5C0
  8
0
 10
-272.7719999999999914
 20
2883.2399999999997817
 30
0.0
 70
    32
  0
VERTEX
  5
5C1
  8
0
 10
-265.7900000000000205
 20
2872.8699999999998909
 30
0.0
 70
    32
  0
VERTEX
  5
5C2
  8
0
 10
-257.7789999999999964
 20
2862.6799999999998363
 30
0.0
 70
    32
  0
VERTEX
  5
5C3
  8
0
 10
-248.7589999999999861
 20
2852.6999999999998181
 30
0.0
 70
    32
  0
VERTEX
  5
5C4
  8
0
 10
-238.7510000000000048
 20
2842.9499999999998181
 30
0.0
 70
    32
  0
VERTEX
  5
5C5
  8
0
 10
-227.7800000000000011
 20
2833.4400000000000546
 30
0.0
 70
    32
  0
VERTEX
  5
5C6
  8
0
 10
-215.8720000000000141
 20
2824.2199999999997999
 30
0.0
 70
    32
  0
VERTEX
  5
5C7
  8
0
 10
-203.0550000000000068
 20
2815.2899999999999636
 30
0.0
 70
    32
  0
VERTEX
  5
5C8
  8
0
 10
-189.36099999999999
 20
2806.6799999999998363
 30
0.0
 70
    32
  0
VERTEX
  5
5C9
  8
0
 10
-174.8220000000000027
 20
2798.4099999999998545
 30
0.0
 70
    32
  0
VERTEX
  5
5CA
  8
0
 10
-159.4739999999999043
 20
2790.5
 30
0.0
 70
    32
  0
VERTEX
  5
5CB
  8
0
 10
-143.3530000000000086
 20
2782.9699999999997999
 30
0.0
 70
    32
  0
VERTEX
  5
5CC
  8
0
 10
-126.4989999999999952
 20
2775.8400000000001455
 30
0.0
 70
    32
  0
VERTEX
  5
5CD
  8
0
 10
-108.9509999999999934
 20
2769.1199999999998909
 30
0.0
 70
    32
  0
VERTEX
  5
5CE
  8
0
 10
-90.7530000000000001
 20
2762.840000000001055
 30
0.0
 70
    32
  0
VERTEX
  5
5CF
  8
0
 10
-71.9478000000000009
 20
2756.9899999999997817
 30
0.0
 70
    32
  0
VERTEX
  5
5D0
  8
0
 10
-52.5808999999999997
 20
2751.6100000000001273
 30
0.0
 70
    32
  0
VERTEX
  5
5D1
  8
0
 10
-32.6989999999999981
 20
2746.6999999999998181
 30
0.0
 70
    32
  0
VERTEX
  5
5D2
  8
0
 10
-12.3499999999999996
 20
2742.2800000000002001
 30
0.0
 70
    32
  0
VERTEX
  5
5D3
  8
0
 10
8.4171099999999992
 20
2738.3499999999999091
 30
0.0
 70
    32
  0
VERTEX
  5
5D4
  8
0
 10
29.5521999999999991
 20
2734.9200000000000728
 30
0.0
 70
    32
  0
VERTEX
  5
5D5
  8
0
 10
51.0045000000000002
 20
2732.0100000000011278
 30
0.0
 70
    32
  0
VERTEX
  5
5D6
  8
0
 10
72.7222000000000008
 20
2729.6199999999998909
 30
0.0
 70
    32
  0
VERTEX
  5
5D7
  8
0
 10
94.6530999999999949
 20
2727.75
 30
0.0
 70
    32
  0
VERTEX
  5
5D8
  8
0
 10
116.7439999999999998
 20
2726.4099999999998545
 30
0.0
 70
    32
  0
VERTEX
  5
5D9
  8
0
 10
138.9430000000000121
 20
2725.6100000000001273
 30
0.0
 70
    32
  0
VERTEX
  5
5DA
  8
0
 10
161.1939999999999884
 20
2725.3400000000001455
 30
0.0
 70
    32
  0
VERTEX
  5
5DB
  8
0
 10
183.445999999999998
 20
2725.6100000000001273
 30
0.0
 70
    32
  0
VERTEX
  5
5DC
  8
0
 10
205.6450000000000102
 20
2726.4099999999998545
 30
0.0
 70
    32
  0
VERTEX
  5
5DD
  8
0
 10
227.73599999999999
 20
2727.75
 30
0.0
 70
    32
  0
VERTEX
  5
5DE
  8
0
 10
249.6670000000000016
 20
2729.6199999999998909
 30
0.0
 70
    32
  0
VERTEX
  5
5DF
  8
0
 10
271.3840000000000146
 20
2732.0100000000011278
 30
0.0
 70
    32
  0
VERTEX
  5
5E0
  8
0
 10
292.8369999999999891
 20
2734.9200000000000728
 30
0.0
 70
    32
  0
VERTEX
  5
5E1
  8
0
 10
313.97199999999998
 20
2738.3499999999999091
 30
0.0
 70
    32
  0
VERTEX
  5
5E2
  8
0
 10
334.7389999999999759
 20
2742.2800000000002001
 30
0.0
 70
    32
  0
VERTEX
  5
5E3
  8
0
 10
355.0880000000000223
 20
2746.6999999999998181
 30
0.0
 70
    32
  0
VERTEX
  5
5E4
  8
0
 10
374.9700000000000273
 20
2751.6100000000001273
 30
0.0
 70
    32
  0
VERTEX
  5
5E5
  8
0
 10
394.3369999999999891
 20
2756.9899999999997817
 30
0.0
 70
    32
  0
VERTEX
  5
5E6
  8
0
 10
413.1419999999999959
 20
2762.840000000001055
 30
0.0
 70
    32
  0
VERTEX
  5
5E7
  8
0
 10
431.3399999999999181
 20
2769.1199999999998909
 30
0.0
 70
    32
  0
VERTEX
  5
5E8
  8
0
 10
448.88799999999992
 20
2775.8400000000001455
 30
0.0
 70
    32
  0
VERTEX
  5
5E9
  8
0
 10
465.7420000000000186
 20
2782.9699999999997999
 30
0.0
 70
    32
  0
VERTEX
  5
5EA
  8
0
 10
481.8629999999997722
 20
2790.5
 30
0.0
 70
    32
  0
VERTEX
  5
5EB
  8
0
 10
497.2109999999997854
 20
2798.4099999999998545
 30
0.0
 70
    32
  0
VERTEX
  5
5EC
  8
0
 10
511.7490000000000236
 20
2806.6799999999998363
 30
0.0
 70
    32
  0
VERTEX
  5
5ED
  8
0
 10
525.4439999999998463
 20
2815.2899999999999636
 30
0.0
 70
    32
  0
VERTEX
  5
5EE
  8
0
 10
538.2599999999999909
 20
2824.2199999999997999
 30
0.0
 70
    32
  0
VERTEX
  5
5EF
  8
0
 10
550.168999999999869
 20
2833.4400000000000546
 30
0.0
 70
    32
  0
VERTEX
  5
5F0
  8
0
 10
561.1399999999996453
 20
2842.9499999999998181
 30
0.0
 70
    32
  0
VERTEX
  5
5F1
  8
0
 10
571.1480000000000246
 20
2852.6999999999998181
 30
0.0
 70
    32
  0
VERTEX
  5
5F2
  8
0
 10
580.1680000000000064
 20
2862.6799999999998363
 30
0.0
 70
    32
  0
VERTEX
  5
5F3
  8
0
 10
588.1779999999999973
 20
2872.8699999999998909
 30
0.0
 70
    32
  0
VERTEX
  5
5F4
  8
0
 10
595.1599999999999682
 20
2883.2399999999997817
 30
0.0
 70
    32
  0
VERTEX
  5
5F5
  8
0
 10
601.09699999999998
 20
2893.7699999999999818
 30
0.0
 70
    32
  0
VERTEX
  5
5F6
  8
0
 10
605.9740000000000464
 20
2904.4200000000000728
 30
0.0
 70
    32
  0
VERTEX
  5
5F7
  8
0
 10
609.778999999999769
 20
2915.1799999999998363
 30
0.0
 70
    32
  0
VERTEX
  5
5F8
  8
0
 10
612.5040000000000191
 20
2926.0199999999999818
 30
0.0
 70
    32
  0
VERTEX
  5
5F9
  8
0
 10
614.140999999999849
 20
2936.9099999999998545
 30
0.0
 70
    32
  0
VERTEX
  5
5FA
  8
0
 10
614.6879999999999882
 20
2947.8200000000001637
 30
0.0
 70
    32
  0
SEQEND
  5
5FB
  8
0
  0
POLYLINE
  5
7D0
  8
0
 66
     1
 10
0.0
 20
0.0
 30
0.0
  0
VERTEX
  5
FE3
  8
0
 10
2674.2442050331869723
 20
2322.8892463169499933
 30
0.0
  0
VERTEX
  5
FE4
  8
0
 10
1776.9749073103359933
 20
2020.5205325538950092
 30
0.0
  0
VERTEX
  5
FE5
  8
0
 10
3308.0296702923528755
 20
1533.1733182723351092
 30
0.0
  0
VERTEX
  5
FE6
  8
0
 10
3398.8910534863098292
 20
2900.6975440258761409
 30
0.0
  0
SEQEND
  5
FE7
  8
0
  0
ENDSEC
  0
EOF
